<?xml version="1.0" encoding="iso-8859-1"?>
<!-- Generator: Adobe Illustrator 19.0.0, SVG Export Plug-In . SVG Version: 6.00 Build 0)  -->
<svg version="1.1" id="Capa_1" xmlns="http://www.w3.org/2000/svg" xmlns:xlink="http://www.w3.org/1999/xlink" x="0px" y="0px"
	 viewBox="0 0 463.955 463.955" style="enable-background:new 0 0 463.955 463.955;" xml:space="preserve">
<g>
	<g>
		<path d="M226.652,53.646l-9.6-9.616c-8.824-8.824-20.552-13.688-33.024-13.688s-24.2,4.856-33.024,13.688l-30.92,30.944
			l-30.92-30.952C80.34,35.198,68.612,30.334,56.14,30.334S31.916,35.206,23.1,44.038l-9.6,9.608c-18,18.008-18,47.304,0,65.312
			l106.576,106.664l106.576-106.664C244.644,100.95,244.644,71.654,226.652,53.646z M215.316,107.654l-95.24,95.328l-95.264-95.336
			c-11.76-11.768-11.76-30.92,0-42.688l9.6-9.608c5.8-5.808,13.504-9,21.704-9s15.912,3.192,21.704,9l42.24,42.28l42.24-42.28
			c11.592-11.608,31.824-11.608,43.416,0l9.6,9.616C227.084,76.734,227.084,95.885,215.316,107.654z"/>
	</g>
</g>
<g>
	<g>
		<path d="M450.468,261.646l-9.608-9.616c-8.824-8.832-20.544-13.688-33.024-13.688s-24.2,4.856-33.024,13.688l-30.92,30.944
			l-30.928-30.944c-8.816-8.832-20.544-13.688-33.016-13.688c-12.48,0-24.208,4.864-33.024,13.688l-9.616,9.616
			c-17.992,18.008-17.992,47.304,0,65.312l106.584,106.664L450.46,326.958C468.452,308.95,468.452,279.654,450.468,261.646z
			 M439.148,315.646l-95.256,95.336l-95.264-95.336c-11.76-11.768-11.76-30.92,0-42.688l9.608-9.616c5.8-5.8,13.504-9,21.712-9
			c8.192,0,15.904,3.192,21.704,9l42.24,42.28l42.232-42.28c11.608-11.608,31.824-11.608,43.416,0l9.608,9.616
			C450.908,284.726,450.908,303.878,439.148,315.646z"/>
	</g>
</g>
<g>
	<g>
		<path d="M183.78,298.741l-12.344-12.36c-10.416-10.416-28.56-10.416-38.968,0l-12.496,12.504l-12.496-12.504
			c-10.392-10.416-28.544-10.424-38.952,0L56.18,298.733c-10.72,10.736-10.728,28.2,0,38.936l63.8,63.848l63.8-63.848
			C194.508,326.933,194.5,309.469,183.78,298.741z M172.468,326.357l-52.48,52.528l-52.48-52.52c-4.496-4.504-4.496-11.824,0-16.32
			l12.344-12.352c2.168-2.192,5.072-3.392,8.152-3.392c3.088,0,5.984,1.2,8.168,3.384l23.808,23.832l23.816-23.832
			c4.36-4.36,11.968-4.36,16.328,0l12.344,12.36C176.964,314.542,176.964,321.862,172.468,326.357z"/>
	</g>
</g>
<g>
	<g>
		<path d="M407.5,106.734l-12.344-12.352c-10.408-10.424-28.544-10.416-38.952,0L343.7,106.885l-12.496-12.504
			c-10.408-10.424-28.552-10.424-38.96,0L279.9,106.734c-10.728,10.728-10.728,28.192,0,38.936l63.8,63.848l63.8-63.848
			C418.236,134.934,418.236,117.461,407.5,106.734z M396.196,134.357l-52.488,52.528l-52.48-52.52
			c-4.504-4.504-4.504-11.824-0.008-16.328l12.344-12.352c2.184-2.184,5.08-3.384,8.168-3.384c3.08,0,5.976,1.2,8.168,3.384
			l23.808,23.832l23.816-23.832c4.376-4.36,11.952-4.36,16.328,0l12.344,12.36C400.692,122.542,400.692,129.862,396.196,134.357z"/>
	</g>
</g>
<g>
	<g>
		<rect x="207.796" y="174.302" width="15.992" height="16"/>
	</g>
</g>
<g>
	<g>
		<rect x="215.796" y="214.302" width="15.992" height="16"/>
	</g>
</g>
<g>
	<g>
		<rect x="175.876" y="206.302" width="15.984" height="16"/>
	</g>
</g>
<g>
</g>
<g>
</g>
<g>
</g>
<g>
</g>
<g>
</g>
<g>
</g>
<g>
</g>
<g>
</g>
<g>
</g>
<g>
</g>
<g>
</g>
<g>
</g>
<g>
</g>
<g>
</g>
<g>
</g>
</svg>
