<?xml version="1.0" encoding="iso-8859-1"?>
<!-- Generator: Adobe Illustrator 19.0.0, SVG Export Plug-In . SVG Version: 6.00 Build 0)  -->
<svg version="1.1" id="Capa_1" xmlns="http://www.w3.org/2000/svg" xmlns:xlink="http://www.w3.org/1999/xlink" x="0px" y="0px"
	 viewBox="0 0 70.334 70.334" style="enable-background:new 0 0 70.334 70.334;" xml:space="preserve">
<g>
	<path d="M39.168,24.334H19.166v2h0.063c0,3,2.672,5.969,5.969,5.969s5.969-2.969,5.969-5.969h8.002h0.061
		c0,3,2.672,5.969,5.969,5.969s5.969-2.969,5.969-5.969l0,0v-2H39.168z"/>
	<path d="M39.166,39.334h-2c0,1-0.897,2-2,2c-1.103,0-2-1-2-2h-2c0,2,1.794,4,4,4C37.372,43.334,39.166,41.334,39.166,39.334z"/>
	<path d="M35.166,0c-2.989,0-5.919,0.525-8.784,1.591c-8.104,3.042-14.145,10.206-15.766,18.694c-0.299,1.564-0.45,3.15-0.45,4.715
		c0,9.308,5.116,17.438,12.681,21.74C10.58,49.725,2.45,57.008,2.175,65.218l-0.007,5.116h65.998v-5h-0.005
		c-0.275-9-8.393-15.482-20.642-18.446c7.546-4.309,12.646-12.511,12.646-21.804c0-1.917-0.225-3.886-0.667-5.768
		C56.838,7.968,46.832,0,35.166,0z M66.166,65.482v2.852h-10v-3h-2v3h-38v-3h-2v3h-10v-2.852c0-7.83,8.869-14.928,21.594-17.325
		c0.142,0.058,0.285,0.113,0.427,0.169C26.408,52.033,30.345,55,35.166,55c4.821,0,8.758-2.967,8.979-6.674
		c0.143-0.056,0.284-0.111,0.426-0.169C57.298,50.555,66.166,57.651,66.166,65.482z M35.166,53c-3.36,0-6.174-1.701-6.846-3.961
		C30.498,49.66,32.792,50,35.166,50c2.374,0,4.668-0.34,6.846-0.961C41.34,51.299,38.526,53,35.166,53z M35.166,48
		c-12.01,0-21.892-9.253-22.908-21.004c1.947-0.02,3.223-0.502,4.484-1.769c2.788-2.8,3.266-7.894,3.391-9.894h30.017
		c0.195,3,1.017,11.486,7.946,11.549C57.214,38.767,47.271,48,35.166,48z M57.552,19.731c0.386,1.642,0.585,3.319,0.606,4.99
		c-5.99-0.012-6.018-10.453-6.02-10.56c-0.004-0.55-0.479-0.827-1.029-0.827H19.166c-0.266,0-0.492-0.061-0.68,0.127
		c-0.188,0.188-0.264,0.36-0.264,0.626c0,0.066,0.04,6.657-2.901,9.606C14.416,24.601,13.166,25,12.166,25v0.077
		c0-0.026-0.001-0.051-0.001-0.077c0-1.439,0.14-2.899,0.416-4.34c1.491-7.808,7.049-14.397,14.573-17.225
		c0.202-0.075,0.41-0.128,0.613-0.197l0.087,0.218l0.073-0.029l-0.094-0.21C30.195,2.422,32.655,2,35.166,2
		C45.898,2,55.104,9.291,57.552,19.731z"/>
</g>
<g>
</g>
<g>
</g>
<g>
</g>
<g>
</g>
<g>
</g>
<g>
</g>
<g>
</g>
<g>
</g>
<g>
</g>
<g>
</g>
<g>
</g>
<g>
</g>
<g>
</g>
<g>
</g>
<g>
</g>
</svg>
