<?xml version="1.0" encoding="iso-8859-1"?>
<!-- Generator: Adobe Illustrator 19.0.0, SVG Export Plug-In . SVG Version: 6.00 Build 0)  -->
<svg version="1.1" id="Capa_1" xmlns="http://www.w3.org/2000/svg" xmlns:xlink="http://www.w3.org/1999/xlink" x="0px" y="0px"
	 viewBox="0 0 438.815 438.815" style="enable-background:new 0 0 438.815 438.815;" xml:space="preserve">
<g>
	<g>
		<g>
			<path style="fill:#1B1B1B;" d="M155.615,79.549c-10.4-10.4-24.4-16-38.4-16s-27.6,5.2-38.4,16c-10.4,10.4-16,24.4-16,38.4
				s5.2,27.6,16,38.4c10.4,10.4,24.4,16,38.4,16s27.6-5.2,38.4-16c10.4-10.4,16-24.4,16-38.4
				C171.215,103.949,166.015,89.949,155.615,79.549z M143.615,143.949c-7.2,7.2-16.8,10.8-26.4,10.8c-9.6,0-19.2-3.6-26.4-10.8
				c-7.2-7.2-10.8-16.8-10.8-26.4c0-9.6,3.6-19.2,10.8-26.4c7.2-7.2,16.8-10.8,26.4-10.8s19.2,3.6,26.4,10.8
				c7.2,7.2,10.8,16.8,10.8,26.4C154.415,127.149,150.815,136.749,143.615,143.949z"/>
			<path style="fill:#1B1B1B;" d="M430.015,210.349c-6-12.8-13.2-24-23.2-33.6c-16-16-36-26-56.8-29.6c-19.2-3.6-39.2-1.6-57.6,5.6
				c-41.2-49.6-87.2-92-131.2-119.2c-51.6-32-100.8-43.6-136-23.6c-2.8,1.6-5.6,3.6-8.4,5.6c-0.4,0-0.4,0.4-0.8,0.4
				c-0.4,0.4-0.4,0.8-0.8,0.8c-2,2.8-4,5.6-5.6,8.4c-19.6,35.2-8,84.4,23.6,136c27.2,44,69.2,90.4,119.2,131.2
				c-7.6,19.2-9.6,39.2-6,58.4c3.6,20.8,13.6,40.8,29.6,56.8c9.6,9.6,20.8,17.2,33.2,22.4c12.4,5.2,25.6,8.4,38.8,8.8
				c4.8,0,8.4-3.6,8.8-8.4c0-2-0.4-3.6-1.6-4.8c-6.8-10-9.6-22-8.4-34c1.2-11.6,6-22.8,14.8-31.6l6-6l2,2c5.6,5.6,13.2,8.8,20.8,8.8
				c7.6,0,15.2-2.8,21.2-8.8l0.8-0.8l10,10c6,6,13.6,8.8,21.2,8.8c7.6,0,15.2-2.8,21.2-8.8s8.8-13.6,8.8-21.2
				c0-7.6-2.8-14.8-8.4-20.8l-0.4-0.4l-10-9.6l0.8-0.8c5.6-5.6,8.8-13.2,8.8-20.8c0-7.2-2.8-14.8-8-20.4l-0.4-0.4l-2-2l6-6
				c8.8-8.8,20-14,31.6-14.8c11.6-1.2,23.6,1.6,34,8.4c1.6,0.8,3.2,1.6,4.8,1.6c4.8,0,8.4-4,8.4-8.8
				C438.415,235.949,435.615,222.749,430.015,210.349z M47.215,153.149c-28.4-46.4-39.6-89.6-23.2-118.8c1.2-2,2.4-4,3.6-5.6
				c2-1.2,3.6-2.4,5.6-3.6c29.2-16.4,72.4-5.2,118.8,23.2c44.4,27.2,91.2,70.4,132,121.6c2,2.4,4,4.8,6,7.6c1.2,1.6,2,2.8,3.2,4.4
				l0.4,0.4l-34.8,35.2l-12-12c-6-6-13.6-8.8-21.2-8.8c-7.6,0-15.2,2.8-21.2,8.8s-8.8,13.6-8.8,21.2c0,7.6,2.8,15.2,8.8,21.2l12,12
				l-34.8,35.2l-0.8-0.4c-1.6-1.2-2.8-2-4.4-3.2c-2.4-2-4.8-4-7.2-5.6C118.015,244.349,74.815,197.549,47.215,153.149z
				 M347.215,291.149c0,3.2-1.2,6.4-3.6,8.8l-0.8,1.2l-11.2-11.2l9.6-9.6l2.4,2C346.015,285.149,347.215,288.349,347.215,291.149z
				 M335.615,262.349l-15.6,15.6l-47.6-47.2l33.2-33.2c13.2,18.4,26,37.6,37.2,57.2L335.615,262.349z M233.615,420.349
				c-6-1.2-12-3.2-18-5.6c-10-4.4-19.6-10.8-27.6-18.8c-13.6-13.6-22-30.4-24.8-47.6c-2.4-14.4-1.6-29.2,2.8-43.2l2,1.6
				c1.6,1.2,2.8,2.4,4.4,3.2c22.4,17.2,46,33.2,70.4,47.2c-7.2,10-11.6,21.6-12.8,33.6
				C228.815,400.349,230.015,410.349,233.615,420.349z M261.615,336.349l-7.2,7.2c-19.6-11.2-38.8-23.6-57.2-37.2l33.2-33.2
				l47.2,47.2L261.615,336.349z M299.615,344.349c-2.4,2.4-5.6,3.6-8.8,3.6s-6.4-1.2-8.8-3.6l-2-2l9.6-9.6l11.2,11.2
				L299.615,344.349z M356.415,344.349c0,3.2-1.2,6.8-3.6,9.2c-2.4,2.4-6,3.6-9.2,3.6s-6.8-1.2-9.2-3.6l-16-16l-23.2-23.2
				l-77.2-77.2c-2.4-2.4-3.6-6-3.6-9.2s1.2-6.8,3.6-9.2c2.4-2.4,6-3.6,9.2-3.6s6.8,1.2,9.2,3.6l94.8,94.8l5.6,5.6l16,16l0.4,0.4
				C355.615,337.949,356.415,341.149,356.415,344.349z M389.215,230.749c-12,1.2-23.6,5.6-33.6,12.8c-14-24.4-30-48-47.2-70.4
				c-1.2-1.6-2.4-2.8-3.2-4.4l-1.6-2c14-4.4,28.8-5.6,43.2-2.8c17.6,3.2,34,11.2,47.6,24.8c8.4,8.4,14.4,17.6,18.8,27.6
				c2.4,6,4.4,12,5.6,18C409.615,230.749,399.615,229.549,389.215,230.749z"/>
		</g>
	</g>
</g>
<g>
</g>
<g>
</g>
<g>
</g>
<g>
</g>
<g>
</g>
<g>
</g>
<g>
</g>
<g>
</g>
<g>
</g>
<g>
</g>
<g>
</g>
<g>
</g>
<g>
</g>
<g>
</g>
<g>
</g>
</svg>
