<?xml version="1.0" encoding="iso-8859-1"?>
<!-- Generator: Adobe Illustrator 19.0.0, SVG Export Plug-In . SVG Version: 6.00 Build 0)  -->
<svg version="1.1" id="Capa_1" xmlns="http://www.w3.org/2000/svg" xmlns:xlink="http://www.w3.org/1999/xlink" x="0px" y="0px"
	 viewBox="0 0 472 472" style="enable-background:new 0 0 472 472;" xml:space="preserve">
<g>
	<rect x="60" y="400" style="fill:#AD3C2B;" width="16" height="48"/>
	<rect x="396" y="400" style="fill:#AD3C2B;" width="16" height="48"/>
</g>
<g>
	<path style="fill:#E65039;" d="M408.504,261.616L240.52,147.08c-2.728-1.856-6.264-1.888-8.984-0.024
		c-24.832,17.016-145.624,99.736-167.976,114.64c-2.224,1.488-3.56,3.968-3.56,6.648V280c0,4.416,3.584,8,8,8h16h32v160h240V288h32
		h16c4.416,0,8-3.584,8-8v-11.768C412,265.584,410.696,263.112,408.504,261.616z"/>
	<ellipse style="fill:#E65039;" cx="404" cy="372" rx="16" ry="36"/>
	<ellipse style="fill:#E65039;" cx="68" cy="372" rx="16" ry="36"/>
</g>
<polyline style="fill:#358CEC;" points="116,272 116,440 356,440 356,272 "/>
<circle style="fill:#FACA4F;" cx="236" cy="224" r="24"/>
<path style="fill:#FBD572;" d="M148,440V304c0-4.416,3.584-8,8-8h40v144H148z"/>
<path style="fill:#FACA4F;" d="M196,440V296h40c4.416,0,8,3.584,8,8v136H196z"/>
<path style="fill:#FBD572;" d="M324,376h-48v-72c0-4.416,3.584-8,8-8h32c4.416,0,8,3.584,8,8V376z"/>
<path style="fill:#FACA4F;" d="M316,408h-32c-4.416,0-8-3.584-8-8v-24h48v24C324,404.416,320.416,408,316,408z"/>
<path style="fill:#BB983B;" d="M420,472H52c-4.416,0-8-3.584-8-8v-16c0-4.416,3.584-8,8-8h368c4.416,0,8,3.584,8,8v16
	C428,468.416,424.416,472,420,472z"/>
<g>
	<path style="fill:#E65039;" d="M129.032,81.544l-14.248-7.264C138.16,28.464,184.608,0,236,0s97.832,28.456,121.208,74.264
		l-14.248,7.264C322.328,41.112,281.344,16,236,16C190.648,16,149.664,41.12,129.032,81.544z"/>
	<path style="fill:#E65039;" d="M305.464,116.984C296.944,85.792,268.384,64,236,64c-32.376,0-60.936,21.784-69.464,52.968
		l-15.44-4.216C161.52,74.624,196.44,48,236,48c39.576,0,74.488,26.632,84.896,64.768L305.464,116.984z"/>
	<path style="fill:#E65039;" d="M268.28,134.8c-3.96-14.496-17.232-24.616-32.28-24.616c-15.04,0-28.312,10.12-32.272,24.608
		l-15.44-4.216c5.856-21.432,25.48-36.392,47.712-36.392s41.856,14.968,47.72,36.4L268.28,134.8z"/>
</g>
<g>
</g>
<g>
</g>
<g>
</g>
<g>
</g>
<g>
</g>
<g>
</g>
<g>
</g>
<g>
</g>
<g>
</g>
<g>
</g>
<g>
</g>
<g>
</g>
<g>
</g>
<g>
</g>
<g>
</g>
</svg>
